<?xml version="1.0" encoding="utf-8"?>
<!-- Generator: Adobe Illustrator 24.2.1, SVG Export Plug-In . SVG Version: 6.00 Build 0)  -->
<svg version="1.1" id="Capa_1" xmlns="http://www.w3.org/2000/svg" xmlns:xlink="http://www.w3.org/1999/xlink" x="0px" y="0px"
	 viewBox="0 0 52 52" style="enable-background:new 0 0 52 52;" xml:space="preserve">
<style type="text/css">
	.st0{fill:#FFFFFF;}
</style>
<g>
	<path class="st0" d="M22.5,19h-3.7v-3.9c0-0.5-0.3-0.9-0.9-0.9s-0.8,0.5-0.8,0.9V19h-3.8c-0.5,0-0.9,0.4-0.9,0.9
		c0,0.6,0.3,0.9,0.9,0.9h3.8v3.9c0,0.5,0.3,0.9,0.9,0.9c0.6,0,0.9-0.4,0.9-0.9v-4h3.8c0.5,0,0.9-0.4,0.9-0.9
		C23.7,19.3,23.1,19,22.5,19z M39.8,13.3v-0.1h-0.1c-0.1,0-10.6,1.4-16.5,13.8c-4.4,8.9-4.1,11.7-3.8,11.7c0.3,0.1,3.9-7.7,7.7-10.8
		c6-1.3,7.6-4.2,7.6-4.2s-1.7,0.2-2.4,0.2c-0.9,0-1.6-0.2-2-0.4c1.5-1.4,2.8-1.8,4-2c1-0.2,2.1-0.5,3.4-1.4
		C40.2,18.1,39.9,13.5,39.8,13.3z"/>
</g>
</svg>
